<?xml version="1.0" encoding="utf-8"?>
<!-- Generator: Adobe Illustrator 17.1.0, SVG Export Plug-In . SVG Version: 6.00 Build 0)  -->
<!DOCTYPE svg PUBLIC "-//W3C//DTD SVG 1.1//EN" "http://www.w3.org/Graphics/SVG/1.1/DTD/svg11.dtd">
<svg version="1.1" id="Layer_1" xmlns="http://www.w3.org/2000/svg" xmlns:xlink="http://www.w3.org/1999/xlink" x="0px" y="0px"
	 viewBox="0 0 96 96" enable-background="new 0 0 96 96" xml:space="preserve">
<path fill="#010101" d="M65.3,11.2c-14.9-14.9-39.1-14.9-54.1,0c-14.9,14.9-14.9,39.1,0,54.1C23.9,78,43.3,79.8,58,70.9l22.4,22.4
	c3.6,3.6,9.4,3.6,12.9,0c3.6-3.6,3.6-9.4,0-12.9L70.9,58C79.8,43.3,78,23.9,65.3,11.2z M55,55c-9.3,9.3-24.3,9.3-33.6,0
	c-9.3-9.3-9.3-24.3,0-33.6c9.3-9.3,24.3-9.3,33.6,0C64.3,30.7,64.3,45.7,55,55z"/>
</svg>
